<svg xmlns="http://www.w3.org/2000/svg" viewBox="0 0 600 300">
  <defs>
    <linearGradient id="g" x1="0" y1="0" x2="1" y2="1">
      <stop offset="0%" stop-color="#6366f1" />
      <stop offset="100%" stop-color="#22d3ee" />
    </linearGradient>
  </defs>
  <rect x="0" y="0" width="600" height="300" fill="#0b0f1a" />
  <g transform="translate(100,70)">
    <rect x="0" y="0" width="400" height="160" rx="18" fill="url(#g)" opacity="0.2" />
    <rect x="0" y="0" width="400" height="160" rx="18" fill="none" stroke="#22d3ee" stroke-width="2" opacity="0.35" />
    <g transform="translate(24,24)">
      <rect x="0" y="0" width="96" height="112" rx="10" fill="#22d3ee" opacity="0.2" />
      <rect x="10" y="10" width="76" height="12" rx="6" fill="#22d3ee" opacity="0.8" />
      <rect x="10" y="32" width="76" height="10" rx="5" fill="#22d3ee" opacity="0.6" />
      <rect x="10" y="50" width="60" height="10" rx="5" fill="#22d3ee" opacity="0.5" />
      <rect x="10" y="68" width="70" height="10" rx="5" fill="#22d3ee" opacity="0.5" />
      <rect x="10" y="86" width="40" height="10" rx="5" fill="#22d3ee" opacity="0.5" />
    </g>
    <g transform="translate(150,40)" fill="#e5e7eb">
      <rect x="0" y="0" width="220" height="14" rx="7" />
      <rect x="0" y="24" width="260" height="10" rx="5" opacity="0.7" />
      <rect x="0" y="42" width="200" height="10" rx="5" opacity="0.6" />
      <rect x="0" y="60" width="180" height="10" rx="5" opacity="0.5" />
    </g>
  </g>
</svg>